<svg xmlns="http://www.w3.org/2000/svg" version="1.1" xmlns:xlink="http://www.w3.org/1999/xlink" xmlns:svgjs="http://svgjs.dev/svgjs" width="2000" height="2024" viewBox="0 0 2000 2024"><g transform="matrix(1,0,0,1,1.767868852458946,0.8194331983804659)"><svg viewBox="0 0 244 247" data-background-color="#ffa458" preserveAspectRatio="xMidYMid meet" height="2024" width="2000" xmlns="http://www.w3.org/2000/svg" xmlns:xlink="http://www.w3.org/1999/xlink"><g id="tight-bounds" transform="matrix(1,0,0,1,-0.21567999999999188,-0.09999999999999432)"><svg viewBox="0 0 244.43135999999998 247.2" height="247.2" width="244.43135999999998"><g><svg></svg></g><g><svg viewBox="0 0 244.43135999999998 247.2" height="247.2" width="244.43135999999998"><g transform="matrix(1,0,0,1,0,103.15590795325542)"><svg viewBox="0 0 244.43135999999998 40.888184093489144" height="40.888184093489144" width="244.43135999999998"><g><svg viewBox="0 0 244.43135999999998 40.888184093489144" height="40.888184093489144" width="244.43135999999998"><g><svg viewBox="0 0 244.43135999999998 40.888184093489144" height="40.888184093489144" width="244.43135999999998"><g><svg viewBox="0 0 244.43135999999998 40.888184093489144" height="40.888184093489144" width="244.43135999999998"><g id="textblocktransform"><svg viewBox="0 0 244.43135999999998 40.888184093489144" height="40.888184093489144" width="244.43135999999998" id="textblock"><g><svg viewBox="0 0 244.43135999999998 40.888184093489144" height="40.888184093489144" width="244.43135999999998"><g transform="matrix(1,0,0,1,0,0)"><svg width="244.43135999999998" viewBox="-0.27 -36.33 219.34 36.699999999999996" height="40.888184093489144" data-palette-color="#ef4444"><path d="M8.86-7.03L6.57 0.2Q4.47 0 1.66 0L1.66 0-0.27 0 10.35-29.76Q11.06-31.76 11.06-32.09 11.06-32.42 11.04-32.5L11.04-32.5 11.06-32.54Q12.65-32.47 14.43-32.47L14.43-32.47Q15.89-32.47 17.94-32.52L17.94-32.52 17.97-32.47Q17.92-32.37 17.92-32.2L17.92-32.2Q17.92-31.74 18.65-29.74L18.65-29.74 29.49 0.07Q29 0.05 28.34 0.05L28.34 0.05Q28.34 0.05 27.08 0L27.08 0Q26.46 0 25.98 0L25.98 0 22.19 0 19.9-7.03 8.86-7.03ZM10.72-12.89L17.99-12.89 14.31-24.24 10.72-12.89ZM38.91-36.33L38.91-24.58Q41.65-26 44.5-26 47.36-26 49.42-25.11 51.49-24.22 53.05-22.56L53.05-22.56Q56.44-18.87 56.44-13.23L56.44-13.23Q56.44-7.06 52.76-3.27L52.76-3.27Q49.22 0.37 43.94 0.37L43.94 0.37Q39.3 0.37 36.3-2.05L36.3-2.05Q32.93-4.79 32.93-9.59L32.93-9.59 32.93-36.33 38.91-36.33ZM38.91-18.41L38.91-9.67Q38.91-5.37 44.26-5.37L44.26-5.37Q46.87-5.37 48.65-7.67L48.65-7.67Q50.46-10.01 50.46-13.5L50.46-13.5Q50.46-17.02 48.56-18.8L48.56-18.8Q46.85-20.39 43.97-20.39L43.97-20.39Q42.23-20.39 40.13-19.21L40.13-19.21Q39.48-18.85 38.91-18.41L38.91-18.41ZM59.93-12.62L59.93-12.62Q59.93-15.31 60.85-17.76 61.76-20.21 63.47-22.05L63.47-22.05Q67.21-26 73.16-26L73.16-26Q79.1-26 82.59-22.27L82.59-22.27Q85.93-18.7 85.93-13.01L85.93-13.01Q85.93-7.32 82.49-3.59L82.49-3.59Q78.85 0.37 72.85 0.37L72.85 0.37Q66.65 0.37 63.13-3.52L63.13-3.52Q59.93-7.06 59.93-12.62ZM65.86-12.77L65.86-12.77Q65.86-11.23 66.38-9.79 66.89-8.35 67.84-7.32L67.84-7.32Q69.87-5.1 73.16-5.1L73.16-5.1Q76.22-5.1 77.97-7.28L77.97-7.28Q79.68-9.38 79.68-12.74L79.68-12.74Q79.68-16.16 77.92-18.26L77.92-18.26Q76.04-20.51 72.77-20.51L72.77-20.51Q69.45-20.51 67.57-18.12L67.57-18.12Q65.86-15.92 65.86-12.77ZM106.29 0L106.29-2.22Q103.17 0.37 99.48 0.37L99.48 0.37Q95.52 0.37 93.28-2.29L93.28-2.29Q91.13-4.88 91.13-9.4L91.13-9.4 91.13-19.09Q91.13-23.97 90.92-24.69 90.72-25.42 90.62-25.61L90.62-25.61Q91.74-25.51 92.96-25.51L92.96-25.51 94.99-25.51Q95.79-25.51 97.11-25.59L97.11-25.59 97.11-11.45Q97.11-6.42 99.85-5.62L99.85-5.62Q100.68-5.37 101.65-5.37L101.65-5.37Q104.53-5.37 106.29-7.47L106.29-7.47 106.29-25.51 112.35-25.51 112.35-3.13Q112.35-0.98 112.54 0L112.54 0 106.29 0ZM131.46-5.37L131.46-5.37Q134.61-5.37 135.78-7.01L135.78-7.01 135.98-7.01 136.05-1.34Q134.85-0.15 131.61 0.24L131.61 0.24Q130.73 0.37 129.42 0.37 128.12 0.37 126.59-0.12 125.06-0.61 123.99-1.71L123.99-1.71Q121.77-3.98 121.77-8.81L121.77-8.81 121.77-19.9 118.08-19.9Q118.06-20.61 118.06-21.34L118.06-21.34 118.06-25.1Q118.06-25.51 118.08-25.51L118.08-25.51 121.77-25.51 121.77-32.47 127.75-32.47 127.75-25.51 134.46-25.51 134.46-19.9 127.75-19.9 127.75-9.94Q127.75-6.1 129.87-5.57L129.87-5.57Q130.56-5.37 131.46-5.37ZM164.78-20.58L164.78 0.15Q163.61 0 160.26 0L160.26 0 158.31 0 158.31-32.57Q159.87-32.47 161.75-32.47 163.63-32.47 164.41-32.67L164.41-32.67 172.62-18.73 180.5-32.67Q181.28-32.47 183.48-32.47 185.68-32.47 187.24-32.57L187.24-32.57 187.24 0 185.29 0Q181.94 0 180.77 0.15L180.77 0.15 180.77-21.73 172.79-7.45 164.78-20.58ZM193.93-12.55L193.93-12.55Q193.93-15.41 194.9-17.85 195.88-20.29 197.66-22.12L197.66-22.12Q201.47-26 207.62-26L207.62-26Q212.82-26 215.97-22.56L215.97-22.56Q219.07-19.24 219.07-14.21L219.07-14.21Q219.07-12.28 218.78-11.57L218.78-11.57Q216.34-10.89 208.84-10.89L208.84-10.89 200.25-10.89Q200.89-8.28 203.21-6.82 205.52-5.37 209.24-5.37L209.24-5.37Q213.12-5.37 215.9-6.76L215.9-6.76Q216.63-7.13 217-7.45L217-7.45Q216.95-6.42 216.88-5.35L216.88-5.35 216.61-1.54Q214.75-0.27 210.6 0.22L210.6 0.22Q209.38 0.37 208.26 0.37L208.26 0.37Q202.06 0.37 198-3.25L198-3.25Q193.93-6.88 193.93-12.55ZM212.58-15.63L212.58-15.63Q211.58-20.87 206.87-20.87L206.87-20.87Q203.16-20.87 201.23-17.68L201.23-17.68Q200.64-16.7 200.32-15.53L200.32-15.53Q200.91-15.5 201.76-15.48L201.76-15.48 203.57-15.48Q204.47-15.45 205.3-15.45L205.3-15.45 206.7-15.45Q207.94-15.45 209.14-15.48L209.14-15.48 211.14-15.55Q211.95-15.58 212.58-15.63Z" opacity="1" transform="matrix(1,0,0,1,0,0)" fill="#ef4444" class="wordmark-text-0" data-fill-palette-color="primary" id="text-0"></path></svg></g></svg></g></svg></g></svg></g><g></g></svg></g></svg></g></svg></g><path d="M0 97.156L0 1 244.431 1 244.431 97.156 240.744 97.156 240.744 4.687 3.687 4.687 3.687 97.156 0 97.156M0 150.044L0 246.2 244.431 246.2 244.431 150.044 240.744 150.044 240.744 242.513 3.687 242.513 3.687 150.044 0 150.044" fill="#ea3c12" stroke="transparent" data-fill-palette-color="tertiary"></path></svg></g><defs></defs></svg><rect width="244.43135999999998" height="247.2" fill="none" stroke="none" visibility="hidden"></rect></g></svg></g></svg>